<svg width="84" height="80" viewBox="0 0 84 80" fill="none" xmlns="http://www.w3.org/2000/svg">
<path d="M28.9414 7.5V17.5" stroke="#333333" stroke-width="2" stroke-linecap="round" stroke-linejoin="round"/>
<path d="M39.4258 7.5V17.5" stroke="#333333" stroke-width="2" stroke-linecap="round" stroke-linejoin="round"/>
<path d="M49.9102 7.5V17.5" stroke="#333333" stroke-width="2" stroke-linecap="round" stroke-linejoin="round"/>
<path d="M10.5918 67.5H68.2585" stroke="#333333" stroke-width="2" stroke-linecap="round" stroke-linejoin="round"/>
<path d="M27.4003 67.5C22.3836 65.3045 18.1329 61.7817 15.1534 57.3501C12.1739 52.9186 10.5907 47.7644 10.5918 42.5V27.5H68.2585V42.5C68.2596 47.7644 66.6764 52.9186 63.6968 57.3501C60.7173 61.7817 56.4667 65.3045 51.4499 67.5" stroke="#333333" stroke-width="2" stroke-linecap="round" stroke-linejoin="round"/>
<path d="M68.2585 27.5C71.0393 27.5 73.7062 28.5536 75.6725 30.4289C77.6387 32.3043 78.7434 34.8478 78.7434 37.5V40C78.7434 42.6522 77.6387 45.1957 75.6725 47.0711C73.7062 48.9464 71.0393 50 68.2585 50H67.1445" stroke="#333333" stroke-width="2" stroke-linecap="round" stroke-linejoin="round"/>
</svg>
