<svg width="22" height="23" viewBox="0 0 22 23" fill="none" xmlns="http://www.w3.org/2000/svg">
<path d="M9.22855 3.1848L2.87605 8.2723C2.16105 8.84063 1.70272 10.0415 1.85855 10.9398L3.07772 18.2365C3.29772 19.5381 4.54439 20.5923 5.86439 20.5923H16.1311C17.4419 20.5923 18.6977 19.529 18.9177 18.2365L20.1369 10.9398C20.2836 10.0415 19.8252 8.84063 19.1194 8.2723L12.7669 3.19396C11.7861 2.40563 10.2002 2.40563 9.22855 3.1848V3.1848Z" stroke="#3B7576" stroke-width="1.5" stroke-linecap="round" stroke-linejoin="round"/>
<path d="M9.05469 13.7811C10.2189 12.6719 11.7772 12.6719 12.9414 13.7811" stroke="#3B7576" stroke-width="1.5" stroke-linecap="round" stroke-linejoin="round"/>
<path d="M14.8841 11.8388C14.4117 11.3747 13.8668 10.9908 13.2707 10.7022C12.5606 10.3583 11.7818 10.1797 10.9928 10.1797C10.2038 10.1797 9.42503 10.3583 8.7149 10.7022C8.14656 10.9772 7.60573 11.353 7.10156 11.8388" stroke="#3B7576" stroke-width="1.5" stroke-linecap="round" stroke-linejoin="round"/>
<path d="M10.9922 16.1836H11.0005" stroke="#3B7576" stroke-width="2" stroke-linecap="round" stroke-linejoin="round"/>
</svg>
