<svg width="81" height="78" viewBox="0 0 81 78" fill="none" xmlns="http://www.w3.org/2000/svg">
<path d="M40.5625 20.5C45.395 20.5 49.3125 16.5825 49.3125 11.75C49.3125 6.91751 45.395 3 40.5625 3C35.73 3 31.8125 6.91751 31.8125 11.75C31.8125 16.5825 35.73 20.5 40.5625 20.5Z" stroke="#4F4F4F" stroke-width="2" stroke-linecap="round" stroke-linejoin="round"/>
<path d="M48.6865 40.0937L59.5615 48.5312C60.2805 49.1297 61.1971 49.4378 62.1316 49.3952C63.066 49.3525 63.9508 48.9622 64.6122 48.3007C65.2737 47.6393 65.664 46.7545 65.7067 45.8201C65.7493 44.8856 65.4412 43.969 64.8428 43.25L52.4678 27.3438C51.8911 26.7612 51.2049 26.2984 50.4487 25.982C49.6925 25.6655 48.8812 25.5018 48.0615 25.5H33.0615C31.3978 25.5089 29.8042 26.171 28.624 27.3438L16.249 43.25C15.6047 43.9652 15.2601 44.9009 15.2866 45.8632C15.3131 46.8255 15.7086 47.7407 16.3913 48.4194C17.0741 49.0981 17.9916 49.4883 18.9541 49.5091C19.9165 49.5299 20.8501 49.1798 21.5615 48.5312L32.4365 40.0937L23.749 67.4688C23.5397 67.9161 23.4206 68.4002 23.3984 68.8936C23.3762 69.3869 23.4514 69.8798 23.6197 70.3441C23.7881 70.8084 24.0462 71.235 24.3793 71.5996C24.7125 71.9641 25.1142 72.2595 25.5615 72.4688C26.0088 72.678 26.493 72.7972 26.9864 72.8194C27.4797 72.8415 27.9726 72.7663 28.4369 72.598C28.9012 72.4297 29.3278 72.1716 29.6923 71.8384C30.0569 71.5053 30.3522 71.1036 30.5615 70.6562L40.5615 54.9063L50.5615 70.6562C50.7569 71.1231 51.0447 71.5456 51.4076 71.8982C51.7706 72.2509 52.2011 72.5265 52.6734 72.7083C53.1457 72.8902 53.6498 72.9745 54.1556 72.9564C54.6613 72.9382 55.1581 72.8178 55.6161 72.6026C56.0741 72.3873 56.4838 72.0815 56.8205 71.7037C57.1572 71.3259 57.4139 70.8839 57.5753 70.4042C57.7366 69.9245 57.7992 69.4172 57.7592 68.9127C57.7192 68.4082 57.5776 67.917 57.3428 67.4688L48.6865 40.0937Z" stroke="#4F4F4F" stroke-width="2" stroke-linecap="round" stroke-linejoin="round"/>
</svg>
