<svg width="85" height="80" viewBox="0 0 85 80" fill="none" xmlns="http://www.w3.org/2000/svg">
<path d="M11.2715 20V45" stroke="#4F4F4F" stroke-width="2" stroke-linecap="round" stroke-linejoin="round"/>
<path d="M18.5449 67.4988C21.1676 63.6622 24.7525 60.5102 28.9748 58.3284C33.1971 56.1466 37.9234 55.0039 42.7256 55.0039C47.5278 55.0039 52.2541 56.1466 56.4764 58.3284C60.6987 60.5102 64.2836 63.6622 66.9063 67.4988" stroke="#4F4F4F" stroke-width="2" stroke-linecap="round" stroke-linejoin="round"/>
<path d="M74.1806 20L42.726 30L11.2715 20L42.726 10L74.1806 20Z" stroke="#4F4F4F" stroke-width="2" stroke-linecap="round" stroke-linejoin="round"/>
<path d="M56.2594 25.6875C58.6639 28.1918 60.2525 31.3092 60.8315 34.6597C61.4106 38.0101 60.9552 41.4489 59.5208 44.5568C58.0863 47.6647 55.7348 50.3074 52.753 52.1628C49.7711 54.0182 46.2877 55.0061 42.7274 55.0061C39.1671 55.0061 35.6837 54.0182 32.7018 52.1628C29.72 50.3074 27.3685 47.6647 25.934 44.5568C24.4996 41.4489 24.0442 38.0101 24.6233 34.6597C25.2023 31.3092 26.7909 28.1918 29.1954 25.6875" stroke="#4F4F4F" stroke-width="2" stroke-linecap="round" stroke-linejoin="round"/>
</svg>
