<svg width="92" height="31" viewBox="0 0 92 31" fill="none" xmlns="http://www.w3.org/2000/svg">
<path d="M20.7841 8.57724L15.29 8.6963C15.1717 4.89626 10.7026 4.18193 7.80112 5.32943C5.79141 6.12426 5.36385 8.31405 7.32602 9.43384C11.9059 12.0474 20.8965 10.9864 21.5 18.5513C22.1143 26.2465 15.6251 28.3977 9.13806 27.9271C4.02954 27.5565 0.205165 24.0484 0 18.8489L5.14521 18.4233C5.3822 19.1986 5.54768 20.0227 5.92544 20.7478C7.29345 23.376 10.7562 23.9597 13.4042 23.1155C15.8999 22.3203 17.4498 19.0418 14.7718 17.5146C10.5866 15.1283 2.55894 16.0467 1.13028 9.65623C-0.676893 1.57207 8.45106 -0.683239 14.5981 0.84651C18.3356 1.77686 20.6774 4.7173 20.7838 8.57612L20.7841 8.57724Z" fill="white"/>
<path d="M37.0253 0.695687L46.7661 16.6963L46.8002 23.4274L36.9669 30.3996L27.0527 23.5094L27.0591 16.706L36.7816 0.768696L37.0249 0.695312L37.0253 0.695687ZM42.0208 21.098L42.0166 17.9823L36.968 9.77347L31.8254 18.0089C31.7296 18.3155 31.7082 20.6214 31.7951 20.9179C31.8419 21.0785 32.0134 21.1904 32.1403 21.2896L36.9482 24.5663L42.0211 21.0983L42.0208 21.098Z" fill="white"/>
<path d="M91.3758 0.933594V5.4723C89.651 5.44235 87.9071 5.49776 86.1744 5.47754C85.545 5.47005 85.0183 5.47005 84.3882 5.48353C84.2193 5.48727 83.6121 5.24692 83.6121 5.53183V27.45H78.237V5.4723H70.3535V0.933594H91.3758Z" fill="white"/>
<path d="M58.0509 1.17188V23.0301H71.3091V27.4494H52.6758V1.17188H58.0509Z" fill="white"/>
</svg>
